<svg width="218" height="35" viewBox="0 0 218 35" fill="none" xmlns="http://www.w3.org/2000/svg">
<path d="M57.456 18.614H61.304V28H58.132V26.908C56.8667 27.844 55.2373 28.312 53.244 28.312C51.5627 28.312 50.02 27.948 48.616 27.22C47.212 26.492 46.094 25.4347 45.262 24.048C44.43 22.644 44.014 20.98 44.014 19.056C44.014 17.2013 44.4387 15.5547 45.288 14.116C46.1547 12.66 47.3507 11.5247 48.876 10.71C50.4013 9.89533 52.1173 9.488 54.024 9.488C55.6187 9.488 57.066 9.75667 58.366 10.294C59.666 10.8313 60.758 11.6113 61.642 12.634L58.938 15.13C57.638 13.7607 56.0693 13.076 54.232 13.076C53.0707 13.076 52.0393 13.3273 51.138 13.83C50.2367 14.3153 49.5347 15.0087 49.032 15.91C48.5293 16.8113 48.278 17.8513 48.278 19.03C48.278 20.2607 48.5207 21.3093 49.006 22.176C49.5087 23.0427 50.176 23.7013 51.008 24.152C51.84 24.5853 52.75 24.802 53.738 24.802C55.2113 24.802 56.4507 24.386 57.456 23.554V18.614ZM69.9486 28.208C68.3713 28.208 67.1406 27.792 66.2566 26.96C65.3726 26.1107 64.9306 24.9147 64.9306 23.372V8.708H68.9866V23.138C68.9866 23.7273 69.1339 24.1867 69.4286 24.516C69.7406 24.828 70.1739 24.984 70.7286 24.984C70.9366 24.984 71.1446 24.958 71.3526 24.906C71.5779 24.854 71.7513 24.7933 71.8726 24.724L72.0546 27.87C71.3786 28.0953 70.6766 28.208 69.9486 28.208ZM80.4479 28.208C78.9746 28.208 77.6486 27.9047 76.4699 27.298C75.3086 26.674 74.3986 25.816 73.7399 24.724C73.0813 23.632 72.7519 22.3927 72.7519 21.006C72.7519 19.6193 73.0813 18.38 73.7399 17.288C74.3986 16.196 75.3086 15.3467 76.4699 14.74C77.6486 14.116 78.9746 13.804 80.4479 13.804C81.9213 13.804 83.2386 14.116 84.3999 14.74C85.5613 15.3467 86.4713 16.196 87.1299 17.288C87.7886 18.38 88.1179 19.6193 88.1179 21.006C88.1179 22.3927 87.7886 23.632 87.1299 24.724C86.4713 25.816 85.5613 26.674 84.3999 27.298C83.2386 27.9047 81.9213 28.208 80.4479 28.208ZM80.4479 24.88C81.4879 24.88 82.3373 24.5333 82.9959 23.84C83.6719 23.1293 84.0099 22.1847 84.0099 21.006C84.0099 19.8273 83.6719 18.8913 82.9959 18.198C82.3373 17.4873 81.4879 17.132 80.4479 17.132C79.4079 17.132 78.5499 17.4873 77.8739 18.198C77.1979 18.8913 76.8599 19.8273 76.8599 21.006C76.8599 22.1847 77.1979 23.1293 77.8739 23.84C78.5499 24.5333 79.4079 24.88 80.4479 24.88ZM99.097 13.804C100.397 13.804 101.576 14.1073 102.633 14.714C103.708 15.3033 104.548 16.144 105.155 17.236C105.762 18.3107 106.065 19.5673 106.065 21.006C106.065 22.4447 105.762 23.71 105.155 24.802C104.548 25.8767 103.708 26.7173 102.633 27.324C101.576 27.9133 100.397 28.208 99.097 28.208C97.173 28.208 95.7084 27.6013 94.703 26.388V28H90.829V8.708H94.885V15.494C95.9077 14.3673 97.3117 13.804 99.097 13.804ZM98.395 24.88C99.435 24.88 100.284 24.5333 100.943 23.84C101.619 23.1293 101.957 22.1847 101.957 21.006C101.957 19.8273 101.619 18.8913 100.943 18.198C100.284 17.4873 99.435 17.132 98.395 17.132C97.355 17.132 96.497 17.4873 95.821 18.198C95.1624 18.8913 94.833 19.8273 94.833 21.006C94.833 22.1847 95.1624 23.1293 95.821 23.84C96.497 24.5333 97.355 24.88 98.395 24.88ZM115.826 24.958C116.554 24.958 117.196 24.854 117.75 24.646C118.322 24.4207 118.851 24.074 119.336 23.606L121.494 25.946C120.177 27.454 118.253 28.208 115.722 28.208C114.145 28.208 112.75 27.9047 111.536 27.298C110.323 26.674 109.387 25.816 108.728 24.724C108.07 23.632 107.74 22.3927 107.74 21.006C107.74 19.6367 108.061 18.406 108.702 17.314C109.361 16.2047 110.254 15.3467 111.38 14.74C112.524 14.116 113.807 13.804 115.228 13.804C116.563 13.804 117.776 14.09 118.868 14.662C119.96 15.2167 120.827 16.0313 121.468 17.106C122.127 18.1633 122.456 19.42 122.456 20.876L112.108 22.878C112.403 23.5713 112.862 24.0913 113.486 24.438C114.128 24.7847 114.908 24.958 115.826 24.958ZM115.228 16.872C114.206 16.872 113.374 17.2013 112.732 17.86C112.091 18.5187 111.753 19.4287 111.718 20.59L118.53 19.264C118.34 18.536 117.95 17.9553 117.36 17.522C116.771 17.0887 116.06 16.872 115.228 16.872ZM138.729 14.896C137.169 13.9947 135.496 13.414 133.711 13.154V28H129.499V13.154C127.713 13.414 126.032 13.9947 124.455 14.896L123.025 11.75C124.273 11.0047 125.625 10.4413 127.081 10.06C128.537 9.67867 130.036 9.488 131.579 9.488C133.139 9.488 134.647 9.67867 136.103 10.06C137.576 10.4413 138.928 11.0047 140.159 11.75L138.729 14.896ZM145.383 15.858C145.868 15.182 146.518 14.6707 147.333 14.324C148.165 13.9773 149.118 13.804 150.193 13.804V17.548C149.742 17.5133 149.439 17.496 149.283 17.496C148.121 17.496 147.211 17.8253 146.553 18.484C145.894 19.1253 145.565 20.096 145.565 21.396V28H141.509V14.012H145.383V15.858ZM159.133 28.208C157.66 28.208 156.334 27.9047 155.155 27.298C153.994 26.674 153.084 25.816 152.425 24.724C151.767 23.632 151.437 22.3927 151.437 21.006C151.437 19.6193 151.767 18.38 152.425 17.288C153.084 16.196 153.994 15.3467 155.155 14.74C156.334 14.116 157.66 13.804 159.133 13.804C160.607 13.804 161.924 14.116 163.085 14.74C164.247 15.3467 165.157 16.196 165.815 17.288C166.474 18.38 166.803 19.6193 166.803 21.006C166.803 22.3927 166.474 23.632 165.815 24.724C165.157 25.816 164.247 26.674 163.085 27.298C161.924 27.9047 160.607 28.208 159.133 28.208ZM159.133 24.88C160.173 24.88 161.023 24.5333 161.681 23.84C162.357 23.1293 162.695 22.1847 162.695 21.006C162.695 19.8273 162.357 18.8913 161.681 18.198C161.023 17.4873 160.173 17.132 159.133 17.132C158.093 17.132 157.235 17.4873 156.559 18.198C155.883 18.8913 155.545 19.8273 155.545 21.006C155.545 22.1847 155.883 23.1293 156.559 23.84C157.235 24.5333 158.093 24.88 159.133 24.88ZM177.939 27.324C177.54 27.6187 177.046 27.844 176.457 28C175.885 28.1387 175.287 28.208 174.663 28.208C172.981 28.208 171.69 27.7833 170.789 26.934C169.887 26.0847 169.437 24.8367 169.437 23.19V10.918H173.493V14.324H176.951V17.444H173.493V23.138C173.493 23.7273 173.64 24.1867 173.935 24.516C174.229 24.828 174.654 24.984 175.209 24.984C175.833 24.984 176.387 24.8107 176.873 24.464L177.939 27.324ZM188.653 27.324C188.255 27.6187 187.761 27.844 187.171 28C186.599 28.1387 186.001 28.208 185.377 28.208C183.696 28.208 182.405 27.7833 181.503 26.934C180.602 26.0847 180.151 24.8367 180.151 23.19V10.918H184.207V14.324H187.665V17.444H184.207V23.138C184.207 23.7273 184.355 24.1867 184.649 24.516C184.944 24.828 185.369 24.984 185.923 24.984C186.547 24.984 187.102 24.8107 187.587 24.464L188.653 27.324ZM197.559 24.958C198.287 24.958 198.928 24.854 199.483 24.646C200.055 24.4207 200.583 24.074 201.069 23.606L203.227 25.946C201.909 27.454 199.985 28.208 197.455 28.208C195.877 28.208 194.482 27.9047 193.269 27.298C192.055 26.674 191.119 25.816 190.461 24.724C189.802 23.632 189.473 22.3927 189.473 21.006C189.473 19.6367 189.793 18.406 190.435 17.314C191.093 16.2047 191.986 15.3467 193.113 14.74C194.257 14.116 195.539 13.804 196.961 13.804C198.295 13.804 199.509 14.09 200.601 14.662C201.693 15.2167 202.559 16.0313 203.201 17.106C203.859 18.1633 204.189 19.42 204.189 20.876L193.841 22.878C194.135 23.5713 194.595 24.0913 195.219 24.438C195.86 24.7847 196.64 24.958 197.559 24.958ZM196.961 16.872C195.938 16.872 195.106 17.2013 194.465 17.86C193.823 18.5187 193.485 19.4287 193.451 20.59L200.263 19.264C200.072 18.536 199.682 17.9553 199.093 17.522C198.503 17.0887 197.793 16.872 196.961 16.872ZM210.789 15.858C211.274 15.182 211.924 14.6707 212.739 14.324C213.571 13.9773 214.524 13.804 215.599 13.804V17.548C215.148 17.5133 214.845 17.496 214.689 17.496C213.528 17.496 212.618 17.8253 211.959 18.484C211.3 19.1253 210.971 20.096 210.971 21.396V28H206.915V14.012H210.789V15.858Z" fill="white"/>
<path d="M17.5 0C14.0388 0 10.6554 1.02636 7.77753 2.94928C4.89967 4.87221 2.65665 7.60533 1.33212 10.803C0.00758248 14.0007 -0.338976 17.5194 0.336265 20.9141C1.01151 24.3087 2.67822 27.4269 5.12564 29.8744C7.57306 32.3218 10.6913 33.9885 14.0859 34.6637C17.4806 35.339 20.9993 34.9924 24.197 33.6679C27.3947 32.3433 30.1278 30.1003 32.0507 27.2225C33.9736 24.3446 35 20.9612 35 17.5C34.9951 12.8602 33.1498 8.41187 29.869 5.13104C26.5881 1.85022 22.1398 0.00489969 17.5 0ZM32.3077 17.5C32.3092 19.3997 31.9436 21.2818 31.2308 23.0428L23.7091 18.4171C23.3894 18.2196 23.0316 18.0918 22.6591 18.0418L18.8192 17.5236C18.2901 17.4546 17.7524 17.5433 17.2735 17.7785C16.7945 18.0138 16.3957 18.3852 16.1269 18.8461H14.6596L14.0202 17.5236C13.8434 17.1553 13.5847 16.8323 13.2639 16.5795C12.9431 16.3266 12.5686 16.1505 12.1692 16.0647L10.8231 15.7736L12.1389 13.4615H14.9507C15.4057 13.4606 15.8531 13.3449 16.2514 13.125L18.3127 11.9875C18.4939 11.8866 18.6632 11.7658 18.8176 11.6274L23.3457 7.53173C23.7997 7.12487 24.1014 6.57542 24.2011 5.97401C24.3009 5.37261 24.1926 4.75517 23.8942 4.22356L23.8337 4.11418C26.3674 5.31562 28.5086 7.211 30.0085 9.58033C31.5084 11.9497 32.3057 14.6958 32.3077 17.5ZM2.69231 17.5C2.68989 15.299 3.18094 13.1256 4.12933 11.1394L6.03751 16.2329C6.19653 16.6547 6.45887 17.0297 6.8005 17.3237C7.14212 17.6177 7.55208 17.8212 7.99279 17.9156L11.5988 18.6913L12.2399 20.024C12.4624 20.4773 12.8072 20.8593 13.2354 21.1269C13.6636 21.3945 14.1581 21.5371 14.663 21.5385H14.912L13.6954 24.2695C13.4811 24.7503 13.4124 25.2835 13.498 25.803C13.5835 26.3225 13.8195 26.8055 14.1767 27.1923L14.2002 27.2159L17.5 30.6149L17.1736 32.2976C13.3064 32.2076 9.62763 30.6098 6.92213 27.8452C4.21664 25.0806 2.69873 21.3682 2.69231 17.5Z" fill="url(#paint0_linear_768_11)"/>
<defs>
<linearGradient id="paint0_linear_768_11" x1="17.5" y1="0" x2="17.5" y2="35" gradientUnits="userSpaceOnUse">
<stop stop-color="#2A8D3F"/>
<stop offset="1" stop-color="#184663"/>
</linearGradient>
</defs>
</svg>
