<svg width="35" height="35" viewBox="0 0 35 35" fill="none" xmlns="http://www.w3.org/2000/svg">
<path d="M17.5 0C14.0388 0 10.6554 1.02636 7.77753 2.94928C4.89967 4.87221 2.65665 7.60533 1.33212 10.803C0.00758248 14.0007 -0.338976 17.5194 0.336265 20.9141C1.01151 24.3087 2.67822 27.4269 5.12564 29.8744C7.57306 32.3218 10.6913 33.9885 14.0859 34.6637C17.4806 35.339 20.9993 34.9924 24.197 33.6679C27.3947 32.3433 30.1278 30.1003 32.0507 27.2225C33.9736 24.3446 35 20.9612 35 17.5C34.9951 12.8602 33.1498 8.41187 29.869 5.13104C26.5881 1.85022 22.1398 0.00489969 17.5 0ZM32.3077 17.5C32.3092 19.3997 31.9436 21.2818 31.2308 23.0428L23.7091 18.4171C23.3894 18.2196 23.0316 18.0918 22.6591 18.0418L18.8192 17.5236C18.2901 17.4546 17.7524 17.5433 17.2735 17.7785C16.7945 18.0138 16.3957 18.3852 16.1269 18.8461H14.6596L14.0202 17.5236C13.8434 17.1553 13.5847 16.8323 13.2639 16.5795C12.9431 16.3266 12.5686 16.1505 12.1692 16.0647L10.8231 15.7736L12.1389 13.4615H14.9507C15.4057 13.4606 15.8531 13.3449 16.2514 13.125L18.3127 11.9875C18.4939 11.8866 18.6632 11.7658 18.8176 11.6274L23.3457 7.53173C23.7997 7.12487 24.1014 6.57542 24.2011 5.97401C24.3009 5.37261 24.1926 4.75517 23.8942 4.22356L23.8337 4.11418C26.3674 5.31562 28.5086 7.211 30.0085 9.58033C31.5084 11.9497 32.3057 14.6958 32.3077 17.5ZM2.69231 17.5C2.68989 15.299 3.18094 13.1256 4.12933 11.1394L6.03751 16.2329C6.19653 16.6547 6.45887 17.0297 6.8005 17.3237C7.14212 17.6177 7.55208 17.8212 7.99279 17.9156L11.5988 18.6913L12.2399 20.024C12.4624 20.4773 12.8072 20.8593 13.2354 21.1269C13.6636 21.3945 14.1581 21.5371 14.663 21.5385H14.912L13.6954 24.2695C13.4811 24.7503 13.4124 25.2835 13.498 25.803C13.5835 26.3225 13.8195 26.8055 14.1767 27.1923L14.2002 27.2159L17.5 30.6149L17.1736 32.2976C13.3064 32.2076 9.62763 30.6098 6.92213 27.8452C4.21664 25.0806 2.69873 21.3682 2.69231 17.5Z" fill="url(#paint0_linear_768_10)"/>
<defs>
<linearGradient id="paint0_linear_768_10" x1="17.5" y1="0" x2="17.5" y2="35" gradientUnits="userSpaceOnUse">
<stop stop-color="#2A8D3F"/>
<stop offset="1" stop-color="#184663"/>
</linearGradient>
</defs>
</svg>
